<svg xmlns="http://www.w3.org/2000/svg" version="1.1" width="200px" height="200px"
    viewBox="0 0 200 200" style="overflow:hidden!important;">
    <g id="svga-group-wrapper">
        <g id="svga-group-backs-single"></g>
        <g id="svga-group-humanwrap-move" transform="matrix(1,0,0,1,0,0)">
            <g id="svga-group-humanwrap"
                transform="matrix(1.0500001,0,0,1.0500001,-5.000009141691407,-6.408262862276473)">
                <g id="svga-group-hair-back-move" transform="matrix(1,0,0,1,0,0)">
                    <g id="svga-group-hair-back"></g>
                </g>
                <g id="svga-group-humanbody-back">
                    <path id="SvgjsPath5583"
                        d="m170 180.3-27.3-6.9-18-9.9-1.5-28.2H76.8l-1.5 28.2-18 9.9-27.3 6.9-9.1 19.7-3 20h164.2l-3-20z"
                        fill="#f0c7b1" stroke-width="none" opacity="1" stroke="none"></path>
                    <path id="SvgjsPath5584"
                        d="m76.8 135.3-1.5 28.2-18 9.9-27.3 6.9-9.1 19.7-3 20h14.6v-20l2.7-17.7 23.8-6.4 24.7-8.3 3.5-32.3z"
                        fill="#d19271" stroke-width="none" opacity="1" stroke="none"></path>
                </g>
                <g id="svga-group-chinshadow-single">
                    <path id="SvgjsPath5579"
                        d="m121.5 149.1 2.2-3.8-.5-10H76.8l-.8 15.9 13.8 9.6h14.8z" fill="#c27b55"
                        stroke-width="none" opacity="1" stroke="none"></path>
                </g>
                <g id="svga-group-humanbody-front">
                    <path id="SvgjsPath5585"
                        d="m92.8 168.3 2 7.9 6.9 4.6s-8.5-3-8.7-3.6c-.2-.6-.2-8.9-.2-8.9z"
                        fill="#d19271" stroke-width="none" opacity="1" stroke="none"></path>
                </g>
                <g id="svga-group-clothes-single">
                    <path id="SvgjsPath7814"
                        d="m184.7 220-8.1-35.4-4.8-3.5-1.5-2-17.6-6.8-8.6-15.9-3.8-1.6-7.3-9-9.4-3.1.6 11-1.3 10.1-8.9 9.1-8.1 9.8-2.5 5-1.7-3.2-4.5-3.8-11.2-7.8-8.9-9.1-1.3-10.1.6-11-9.4 3.1-7.3 9-3.8 1.6-8.6 15.9-17.6 6.8-1.5 2-4.8 3.5-8.1 35.4z"
                        fill="#6a3a47" stroke-width="none" opacity="1" stroke="none"></path>
                    <path id="SvgjsPath7815"
                        d="m134.2 188.8-15 3.8-9.9.2-.1-1.7 1.3-.1-.7-2.3-3.2.3-.1 2.3.8-.1v1.6h-2.1l2.1.2.1 5.9-.7 7.4 1.6 7.5.3 4.8 2.6-1-.3-5.1-2-6.6.9-7.3-.3-5.6 9.7.7 15.8-4.1 16-12.2 2-5.3-3.2 4.1-15.6 12.6zm-32.2 4.3-2.5-.2.2-1.8.6.1 1.2-2.2-3.3-2.3-2 1.9 1.2 2.3h.1v1.9l-1.5-.1-26-6.9-15.8-11 1.9-11L59 160l11 18.7 17.7 7.2-14.8-7.9-8.1-12.4 2.2-19.8-7.2 8.9-3.8 1.7-8.6 15.8-17.7 6.8-1.5 2-4.8 3.5-8.1 35.5h10.2l1.3-14.3 3.3-18.1 2.9 2.6 2.6 13.9 1.2 15.9v-16.2l-2.6-15.3-2.2-4.3 1.4-1.7 16.7-6L69 187.3l26.8 6.2 1.5-.1-.1 3.4 1.4 9.9s-3 9.8-2.8 9.9c.3.2 1.7 2.8 1.8 2.6.1-.3 3.5-12.5 3.5-12.5l-1.9-10.4.3-3.1 2.5-.1zm-26.2-39.4.6-10.8-4 5.1-.7 8.4 5.4 7.5-1.3-10.2zm49.1 11 6.7-6.9-.7-10.8-7.3-4.3.6 11-1.3 10.2-8.9 9.1-8.1 9.8-2.5 5 6.5-8.5 15-14.6zm-18.1 22.4 22.9-5 11.2-13.4 3.2-12.3-3.8-1.7-2.4 13-8.6 13.1-22.5 6.3zm56.5 9.7.8 21.6.5-20.4 4.5-13.1-5.8 11.9z"
                        fill="#5b2936" stroke-width="none" opacity="1" stroke="none"></path>
                    <path id="SvgjsPath7816"
                        d="m137.4 165.7 1.2-10.5-6-6.2 1.4 10.3-10.3 16.1-14 8.7 18.6-4.5 9.1-13.9zm13.6 6.2-6.2-10.1c.2.6-2.1 9.5-2.1 9.5l-10.3 12.4-15.5 7.2 16.7-3.1 15.7-12.6 1.7-3.3zm24.8 14-3.7-1.9-2.3 5.6 3.9 9.3 3.9 19.2 4.1.2-5.9-32.4zm-7.7-6.5-14.4-4.8-2.5 5-8.3 5.6 19.4.6 4.5 1.2 3.7-5.6-2.4-2zM85 175.6l-10.1-10.3-3.7-7.4-1.4.6 3.1 11.6 11.6 9.1 14.4 5.6 3.1 3.9-3.3-5.6-13.7-7.5zm43.1-12.5-16.7 16.1-6.6 8.5 13.4-11.6 9.9-13z"
                        fill="#794f5a" stroke-width="none" opacity="1" stroke="none"></path>
                </g>
                <g id="svga-group-head" transform="matrix(1,0,0,1,0,0)">
                    <g id="svga-group-ears-left-move" transform="matrix(1,0,0,1,0,0)">
                        <g id="svga-group-ears-left">
                            <path id="SvgjsPath5485"
                                d="M63.1 91.8s-6-.7-10.6-3.7c0 0-3.5 9.4-4 14.4 0 0 6.7 13 10 18.5 0 0 5.2-.7 6.3-1.4l1.4-8.4-3.1-19.4z"
                                fill="#f0c7b1" stroke-width="none" opacity="1" stroke="none"></path>
                            <path id="SvgjsPath5486"
                                d="M53.3 90c-.2-.4-.8-1.9-.8-1.9 5.2.4 10.7 1.4 10.7 1.4l3 21.6-1.4 8.4c-1.1.7-6.3 1.4-6.3 1.4-.6-1-1.3-2.3-2.1-3.6l2.6 1 3-1.6s.7-11.2.5-11.5c-.1-.3-9-14.8-9.2-15.2z"
                                fill="#e1ac8f" stroke-width="none" opacity="1" stroke="none"></path>
                            <path id="SvgjsPath5487"
                                d="m50.3 100.9 2.8-5.5 5.2 6.8 2.2 9.5-1.4 1.9-4.3-7.6 1-4.7-2.6-4z"
                                fill="#d19271" stroke-width="none" opacity="1" stroke="none"></path>
                        </g>
                    </g>
                    <g id="svga-group-ears-right-move" transform="matrix(1,0,0,1,0,0)">
                        <g id="svga-group-ears-right">
                            <path id="SvgjsPath5488"
                                d="M136.9 91.8s6-.7 10.6-3.7c0 0 3.5 9.4 4 14.4 0 0-6.7 13-10 18.5 0 0-5.2-.7-6.3-1.4l-1.4-8.4 3.1-19.4z"
                                fill="#f0c7b1" stroke-width="none" opacity="1" stroke="none"></path>
                            <path id="SvgjsPath5489"
                                d="M146.7 90c.2-.4.8-1.9.8-1.9-5.2.4-10.7 1.4-10.7 1.4l-3 21.6 1.4 8.4c1.1.7 6.3 1.4 6.3 1.4.6-1 1.3-2.3 2.1-3.6l-2.6 1-3-1.6s-.7-11.2-.5-11.5c.1-.3 9-14.8 9.2-15.2z"
                                fill="#e1ac8f" stroke-width="none" opacity="1" stroke="none"></path>
                            <path id="SvgjsPath5490"
                                d="m149.7 100.9-2.8-5.5-5.2 6.8-2.2 9.5 1.4 1.9 4.3-7.6-1-4.7 2.6-4z"
                                fill="#d19271" stroke-width="none" opacity="1" stroke="none"></path>
                        </g>
                    </g>
                    <g id="svga-group-faceshape-wrap">
                        <g id="svga-group-faceshape-single">
                            <path id="SvgjsPath5565"
                                d="M138.1 60c-6.9-11.6-19.7-19.5-19.7-19.5-7.2-1.5-18.4-2.3-18.4-2.3s-11.1.8-18.4 2.3c0 0-12.8 7.9-19.7 19.5 0 0-5.1 14.5-5.3 24.8l4.9 33.9 14.2 24.8 16.9 11.7h14.9l16.9-11.7 14.2-24.8 4.9-33.9c-.3-10.3-5.4-24.8-5.4-24.8z"
                                fill="#f0c7b1" stroke-width="none" opacity="1" stroke="none"></path>
                            <path id="SvgjsPath5566"
                                d="m92.7 152.7-14.6-12.3s-11.4-20.9-11.8-21.7c-.4-.9-5-34.3-5-34.3.2-4.8 4.5-21.5 5-22.2 2.1-3.2 16.5-18 16.5-18l17.1-4.1 18.5.4c-7.2-1.5-18.4-2.3-18.4-2.3s-11.1.8-18.4 2.3c0 0-12.8 7.9-19.7 19.5 0 0-5.1 14.5-5.3 24.8l4.9 33.9 14.2 24.8 16.9 11.7h14.9l16.9-11.7-18 10.4-13.7-1.2z"
                                fill="#d19271" stroke-width="none" opacity="1" stroke="none"></path>
                        </g>
                    </g>
                    <g id="svga-group-mouth-single-move" transform="matrix(1,0,0,1,0,0)">
                        <g id="svga-group-mouth-single">
                            <path id="SvgjsPath8316"
                                d="m82.7 123.9 1.5 4.2 10.2 9.1 13.4.1 8.6-8.4 1.1-5.2-17.4 4.4z"
                                fill="#000000" stroke-width="none" opacity="1"
                                transform="translate(0 2)"></path>
                            <path id="SvgjsPath8317"
                                d="m100.1 128.1-17.4-4.2 1.9 4.1 15.4 3.5 16.1-2.8 1.4-5z"
                                fill="#ffffff" stroke-width="none" opacity="1"
                                transform="translate(0 2)"></path>
                            <path id="SvgjsPath8318" d="m81.8 123.6 18.3 4.8 18.8-5-19 3.3z"
                                fill="#da7c87" stroke-width="none" opacity="1"
                                transform="translate(0 2)"></path>
                            <path id="SvgjsPath8319"
                                d="m117.4 121.1 1 2.4.2 2.7.7-2.4-.9-2.3-1-.4zm-34.9.5-.9 2.3.7 2.4.2-2.7 1-2.4-1 .4z"
                                fill="#e1ac8f" stroke-width="none" opacity="1"
                                transform="translate(0 2)"></path>
                            <path id="SvgjsPath8320"
                                d="M96.6 140.1s1.4.8 1.6.8c.2 0 6.4-.1 6.4-.1l.7-.9-8.7.2z"
                                fill="#d19271" stroke-width="none" opacity="1"
                                transform="translate(0 2)"></path>
                        </g>
                    </g>
                    <g id="svga-group-eyes-left-move" transform="matrix(1,0,0,1,0,0)">
                        <g id="svga-group-eyes-left">
                            <g id="svga-group-eyesback-left">
                                <path id="SvgjsPath5525"
                                    d="m90.8 100-2.5-7L77 89.8 69.6 92l5.6 8.3z" fill="#ffffff"
                                    stroke-width="none" opacity="1"></path>
                            </g>
                            <g id="svga-group-eyesiriswrapper-left" transform="matrix(1,0,0,1,0,0)">
                                <g id="svga-group-eyesiriscontrol-left"
                                    transform="matrix(1,0,0,1,0,0)">
                                    <g id="svga-group-eyesiris-left">
                                        <path id="SvgjsPath5872"
                                            d="M82.9 89.5h-4L76 92.4v4.1l2.9 2.8h4l2.9-2.8v-4.1z"
                                            fill="#2e1e09" stroke-width="none" opacity="1"
                                            stroke="none"></path>
                                        <path id="SvgjsPath5873"
                                            d="M86.1 96.5v-2c0-.7 0-1.4-.1-2v-.2c-.5-.5-1-.9-1.5-1.4-.2-.2-.5-.5-.8-.7-.2-.2-.5-.4-.8-.7-.3 0-.7 0-1-.1s-.7 0-1-.1c-.7 0-1.4-.1-2.1-.1h-.1l-.1.1c-.5.5-1 .9-1.5 1.4l-.7.7-.7.7-.1.1v.1l.1 2c0 .7.1 1.4.1 2l.7.7.7.7c.5.5.9 1 1.4 1.5h.1c.7 0 1.4.1 2 .1H83l.1-.1 1.5-1.4.7-.7.7-.7.1-.1v.2zm-1.2.5-.7.7-1.3 1.4H81c-.7 0-1.3 0-2 .1-.5-.4-1-.9-1.4-1.4l-.7-.7-.7-.7c0-.7 0-1.3.1-2l.1-1.9.7-.7.7-.7 1.4-1.4c.6 0 1.3 0 1.9-.1.3 0 .7 0 1-.1.3 0 .7 0 1-.1l.7.8c.2.2.5.5.7.8.4.5.9.9 1.3 1.4 0 .7 0 1.3-.1 1.9v1.9l-.8.8z"
                                            fill="#0f0900" stroke-width="none" opacity="1"
                                            stroke="none"></path>
                                        <path id="SvgjsPath5874"
                                            d="m82.6 93.2.4 1.5-.8 1.4-1.6.4-1.4-.8-.4-1.6.8-1.4 1.6-.4z"
                                            fill="#000000" stroke-width="none" opacity="1"></path>
                                        <path id="SvgjsPath5875"
                                            d="m80.6 96.7-1.5-.9-.4-1.7.9-1.5 1.7-.4 1.5.9.4 1.7-.9 1.5-1.7.4zm-1.2-1.1 1.3.8 1.4-.4.8-1.3-.4-1.4-1.3-.8-1.4.4-.8 1.3.4 1.4z"
                                            fill="#0f0900" stroke-width="none" opacity="1"
                                            stroke="none"></path>
                                        <path id="SvgjsPath5876"
                                            d="m78.7 90.9.8-.4 1.1 2.4-.8.4-1.1-2.4z" fill="#ffffff"
                                            stroke-width="none" opacity="1"></path>
                                        <path id="SvgjsPath5877" d="M81.2 95.5h1v1h-1v-1z"
                                            fill="#ffffff" stroke-width="none" opacity="1"></path>
                                    </g>
                                </g>
                            </g>
                            <g id="svga-group-eyesfront-left">
                                <path id="SvgjsPath5533"
                                    d="M67.1 89.3v11.9l7.9 8.4h11.2l7.9-8.4V89.3l-7.9-8.4H75l-7.9 8.4zm2.5 2.7 7.4-2.2L88.3 93l2.5 7-15.6.3-5.6-8.3z"
                                    fill="#f0c7b1" stroke-width="none" opacity="1" stroke="none"></path>
                                <path id="SvgjsPath5534"
                                    d="m91.2 101.3-2.1-8.9-6.5-2.6-6.2-1-8.4 3.7 9-2.5 11 3.3z"
                                    fill="#2a150e" stroke-width="none" opacity="1" stroke="none"></path>
                            </g>
                        </g>
                    </g>
                    <g id="svga-group-eyes-right-move" transform="matrix(1,0,0,1,0,0)">
                        <g id="svga-group-eyes-right">
                            <g id="svga-group-eyesback-right">
                                <path id="SvgjsPath5526"
                                    d="m109.2 100 2.5-7 11.3-3.2 7.4 2.2-5.6 8.3z" fill="#ffffff"
                                    stroke-width="none" opacity="1"></path>
                            </g>
                            <g id="svga-group-eyesiriswrapper-right" transform="matrix(1,0,0,1,0,0)">
                                <g id="svga-group-eyesiriscontrol-right"
                                    transform="matrix(1,0,0,1,0,0)">
                                    <g id="svga-group-eyesiris-right">
                                        <path id="SvgjsPath5878"
                                            d="M121.1 89.5H117l-2.9 2.9v4.1l2.9 2.8h4.1l2.8-2.8v-4.1z"
                                            fill="#2e1e09" stroke-width="none" opacity="1"
                                            stroke="none"></path>
                                        <path id="SvgjsPath5879"
                                            d="M124.2 96.5v-2c0-.7 0-1.4-.1-2v-.1l-.1-.1c-.5-.5-1-.9-1.5-1.4-.2-.2-.5-.5-.8-.7-.2-.2-.5-.4-.8-.7-.3 0-.7 0-1-.1s-.7 0-1-.1c-.7 0-1.4-.1-2.1-.1h-.1l-.1.1c-.5.5-1 .9-1.5 1.4l-.7.7-.7.7-.1.1v.1l.1 2c0 .7.1 1.4.1 2l.7.7.7.7c.5.5.9 1 1.4 1.5h.1c.7 0 1.4.1 2 .1h2.1l.1-.1 1.5-1.4.7-.7.7-.7.1-.1.3.2zm-1.2.5-.7.7-1.3 1.4h-1.9c-.7 0-1.3 0-2 .1-.5-.4-1-.9-1.4-1.4l-.7-.7-.7-.7c0-.7 0-1.3.1-2l.1-1.9.7-.7.7-.7 1.4-1.4c.6 0 1.3 0 1.9-.1.3 0 .7 0 1-.1.3 0 .7 0 1-.1l.7.8c.2.2.5.5.7.8.4.5.9.9 1.3 1.4 0 .7 0 1.3-.1 1.9v1.9l-.8.8z"
                                            fill="#0f0900" stroke-width="none" opacity="1"
                                            stroke="none"></path>
                                        <path id="SvgjsPath5880"
                                            d="m120.7 93.2.4 1.5-.8 1.4-1.6.4-1.4-.8-.4-1.6.9-1.4 1.5-.4z"
                                            fill="#000000" stroke-width="none" opacity="1"></path>
                                        <path id="SvgjsPath5881"
                                            d="m118.7 96.7-1.5-.9-.4-1.7.9-1.5 1.7-.4 1.5.9.4 1.7-.9 1.5-1.7.4zm-1.2-1.1 1.3.8 1.4-.4.8-1.3-.4-1.4-1.3-.8-1.4.4-.8 1.3.4 1.4z"
                                            fill="#0f0900" stroke-width="none" opacity="1"
                                            stroke="none"></path>
                                        <path id="SvgjsPath5882"
                                            d="m116.8 90.9.8-.4 1.1 2.4-.8.4-1.1-2.4z"
                                            fill="#ffffff" stroke-width="none" opacity="1"></path>
                                        <path id="SvgjsPath5883" d="M119.3 95.5h1v1h-1v-1z"
                                            fill="#ffffff" stroke-width="none" opacity="1"></path>
                                    </g>
                                </g>
                            </g>
                            <g id="svga-group-eyesfront-right">
                                <path id="SvgjsPath5535"
                                    d="M125 80.8h-11.2l-7.9 8.4v11.9l7.9 8.4H125l7.9-8.4V89.3l-7.9-8.5zm-.2 19.5-15.6-.3 2.5-7 11.3-3.2 7.4 2.2-5.6 8.3z"
                                    fill="#f0c7b1" stroke-width="none" opacity="1" stroke="none"></path>
                                <path id="SvgjsPath5538"
                                    d="m108.8 101.3 2.1-8.9 6.5-2.6 6.2-1 8.4 3.7-9-2.5-11 3.3z"
                                    fill="#2a150e" stroke-width="none" opacity="1" stroke="none"></path>
                            </g>
                        </g>
                    </g>
                    <g id="svga-group-facehighlight-single"></g>
                    <g id="svga-group-eyebrows-left-move" transform="matrix(1,0,0,1,0,0)">
                        <g id="svga-group-eyebrows-left-rotate"
                            transform="matrix(1,1.7453292519943295e-9,-1.7453292519943295e-9,1,1.4451326535436237e-7,-1.3849188462700113e-7)">
                            <g id="svga-group-eyebrows-left">
                                <path id="SvgjsPath7632"
                                    d="m94 85.8-.6 2.4-2.4 1.6-13.1-7.1-7.9-.2-5.6 4.1 4.8-6 8.5-1.9 10.2 3.5z"
                                    fill="#2a232b" stroke-width="none" opacity="1"></path>
                                <path id="SvgjsPath7633"
                                    d="m90.4 83.7.8.5-.5 3.2-.3-3.7zm-6.2-2.8 1.5 3.1-2.1-3.2.6.1zm3.7 1.3.4.2c.2 1.6.5 4.3.5 4.3L87.3 82l.6.2zm-6.3-2.1.8 1.7-2.2-2.2 1.4.5zM69 82.2c.1 0 0 0 0 0zm-1.8 1c.8-.4 1.5-.8 1.8-.9-.3.2-1.6 1.3-2.9 2.2l1.1-1.3zm6.7-3.6 1.8 2-2.3-1.9.5-.1zm-4.7 1 1.7-.4 2.6.9c.1 0-2.4-.3-4.3-.5z"
                                    fill="#3a353a" stroke-width="none" opacity="1"></path>
                            </g>
                        </g>
                    </g>
                    <g id="svga-group-eyebrows-right-move" transform="matrix(1,0,0,1,0,0)">
                        <g id="svga-group-eyebrows-right-rotate"
                            transform="matrix(1,1.7453292519943295e-9,-1.7453292519943295e-9,1,1.4451326535436237e-7,-2.1057397248114285e-7)">
                            <g id="svga-group-eyebrows-right">
                                <path id="SvgjsPath7634"
                                    d="m106 85.8.6 2.4 2.4 1.6 13.1-7.1 7.9-.2 5.6 4.1-4.8-6-8.5-1.9-10.2 3.5z"
                                    fill="#2a232b" stroke-width="none" opacity="1"></path>
                                <path id="SvgjsPath7635"
                                    d="m109.6 83.7-.8.5.5 3.2.3-3.7zm6.2-2.8-1.5 3.1 2.1-3.2-.6.1zm-3.7 1.3-.4.2c-.2 1.6-.5 4.3-.5 4.3l1.5-4.8-.6.3zm6.3-2.1-.8 1.7 2.2-2.2-1.4.5zm12.6 2.1c-.1 0 0 0 0 0zm1.8 1c-.8-.4-1.5-.8-1.8-.9.4.2 1.6 1.3 2.9 2.2l-1.1-1.3zm-6.7-3.6-1.8 2 2.3-1.9-.5-.1zm4.7 1-1.7-.4-2.6.9c-.1 0 2.3-.3 4.3-.5z"
                                    fill="#3a353a" stroke-width="none" opacity="1"></path>
                            </g>
                        </g>
                    </g>
                    <g id="svga-group-beardwrap">
                        <g id="svga-group-beard-single-move" transform="matrix(1,0,0,1,0,0)">
                            <g id="svga-group-beard-single">
                                <path id="SvgjsPath8189"
                                    d="m141.4 107.5-4.1-3.5-2.7 5.4-4.4 16.8-22.3 22.5-2.1-.6.6-5.3-6.6 1.1-6.2-1.1.6 5.3-2.1.6-22.3-22.5-4.4-16.8-2.8-5.9-3.8 4.3-4.9 22.6 37 35.7h18.2l37-35.7z"
                                    fill="#2a232b" stroke-width="none" opacity="1"></path>
                                <path id="SvgjsPath8190"
                                    d="m94.2 148.1-2 .6 3.3 11.3-1.3-11.9zm11.6 0-1.3 11.9 3.3-11.3-2-.6zm35.6-40.6-.8 25.6-8.1 6.9-1.2-.8-4.8 4.8 3.6-17.8-5.9 5.9 1.7 12.4-17.9 18.1-16 .4-8.2-10.1-2-14.7-4.2-4.2 5.6 18.1-6.3-7.7-.9-12-6.2-6.2 6 16.9-3.8-4.7-1.8 1.4-7.6-14.3-2.2 2.8-1.7-20.6-4.8 22.6L90.8 166H109l36.9-35.7-4.5-22.8zm-24.3 31.9-.2 14.3 6-20.2-5.8 5.9zm-5 5-4 18.2 7.8-22-3.8 3.8zm-28.7-4.5L92 163l-3.8-18.3-4.8-4.8z"
                                    fill="#1b141c" stroke-width="none" opacity="1"></path>
                            </g>
                        </g>
                    </g>
                    <g id="svga-group-mustache-single-move" transform="matrix(1,0,0,1,0,0)">
                        <g id="svga-group-mustache-single">
                            <path id="SvgjsPath8004"
                                d="m100.49 128.61 2.46 1.02.44-1.34 4.72 1.6v-.98l5.61.98-.54-1.78 5.25.8-.44-1.78 5.34 1.25 7.48-.71-.81-2.49-13.35-5.17-15.48-.8h-1.96l-15.49.8-13.35 5.17-.8 2.49 7.48.71 5.34-1.25-.45 1.78 5.25-.8-.53 1.78 5.61-.98v.98l4.71-1.6.45 1.34 2.41-1.03z"
                                fill="#2a232b" stroke-width="none" opacity="1"></path>
                            <path id="SvgjsPath8005"
                                d="m123.37 127.96-11.14-3.66 4.64 2.36.89 1.71-7.56-2.28 1.71 1.63.98 1.46-3.9-.81-2.6-1.46 1.06 2.11-4.64-1.79-.33 1.79-1.55-1.14-.33-1.63-.41 1.63-2.28.73.41-3.99-1.22 3.01-3.99 1.22 1.55-4.15-2.36 3.66-4.23.65 3.17-4.55-3.5 3.09-4.8.81.33-1.38 4.88-2.44-4.96 1.79-6.02 1.46-6.34-.65.41-1.06 12.85-5.37 16.06.77 14.87-1.56-13.84-.72h-1.96l-15.49.8-13.35 5.16-.8 2.49 7.48.71 5.34-1.25-.45 1.78 5.25-.8-.53 1.78 5.61-.98v.98l4.72-1.6.45 1.34 2.41-1.02.65.01 2.46 1.02.45-1.34 4.72 1.6v-.98l5.61.98-.53-1.78 5.25.8-.45-1.78 5.34 1.25 7.48-.71-.8-2.49s-.53 1.89-.62 2.14c-.11.25-6.05.65-6.05.65z"
                                fill="#221b23" stroke-width="none" opacity="1"></path>
                        </g>
                    </g>
                    <g id="svga-group-nose-single-move" transform="matrix(1,0,0,1,0,0)">
                        <g id="svga-group-nose-single">
                            <path id="SvgjsPath5637"
                                d="m96.12 99.91-.45 6.4-5.78 8.87 2.98 2.25 1.63-2.02 4.32 3.82h2.41l4.27-3.82 1.57 1.96 3.15-2.19-5.79-8.92-.56-6.46-3.82-1.63z"
                                fill="#f0c7b1" stroke-width="none" opacity="1"
                                transform="translate(0 1)" stroke="none"></path>
                            <path id="SvgjsPath5638"
                                d="m104.86 106.44-1.95-15.67 1.1 14.55-.86-.22 6.58 10.06-2.34 1.73-1.28-1.51.28-1.34-5.15 4.47h-2.4l-5.15-4.47.29 1.34-1.29 1.51-2.34-1.73 6.59-10.06-.86.22 1.33-22.81-2.19 23.93-5.82 8.83 3.81 2.79 1.44-2.01 4.19 3.91h2.4l4.2-3.91 1.43 2.01 3.81-2.79z"
                                fill="#d19271" stroke-width="none" opacity="1"
                                transform="translate(0 1)" stroke="none"></path>
                            <path id="SvgjsPath5639"
                                d="m96.15 113.17 2.37 1.46 3.1.06 2.55-1.16-.3-1.76-3.59-.6-3.94.66z"
                                fill="#f8d5c3" stroke-width="none" opacity="1"
                                transform="translate(0 1)" stroke="none"></path>
                        </g>
                    </g>
                    <g id="svga-group-hair-front">
                        <path id="SvgjsPath7390"
                            d="M143.01 63.98c-2.54-5.83-19.15-23.84-19.15-23.84L100 36.33l-23.86 3.8s-16.61 18-19.15 23.84l-.93 24.3 4.58 4.03h2.56l.73-24.9 17.21-16.84 7.32 8.24L100 60.55l11.54-1.75 7.32-8.24 17.21 16.84.73 24.9h2.56l4.58-4.03-.93-24.29z"
                            fill="#1b141c" stroke-width="none" opacity="1" stroke="none"></path>
                        <path id="SvgjsPath7391"
                            d="M123.86 40.14 100 36.33l-9.09 1.45-11.22 4.57s8.72 13.88 9.72 13.88c.99 0 12.49 1.78 13.48 1.59.99-.2 8.33-.99 8.33-.99l8.33-7.53 18.04 18.24.92 24.77h.86l4.58-4.03-.93-24.3c-2.55-5.84-19.16-23.84-19.16-23.84z"
                            fill="#2a232b" stroke-width="none" opacity="1" stroke="none"></path>
                    </g>
                    <g id="svga-group-glasses-single-move" transform="matrix(1,0,0,1,0,0)">
                        <g id="svga-group-glasses-single">
                            <path id="SvgjsPath5918"
                                d="M88.1 88.7h-8.7l-6.1 6.1v8.6l6.1 6.1h8.7l6.1-6.1v-8.6l-6.1-6.1zm23.8 0h8.7l6.1 6.1v8.6l-6.1 6.1h-8.7l-6.1-6.1v-8.6l6.1-6.1z"
                                fill="#ffffff" stroke-width="none" opacity="0.28"></path>
                            <path id="SvgjsPath5919"
                                d="m89.3 103.4.2-.2-12.6-11-.2.2 12.6 11zm-3.8 4.7.1-.3-9.8-8.5-.1.2 9.8 8.6zm6.4-8.4.2-.3-9.8-8.5-.2.2 9.8 8.6zm-3.4-.5.2-.3-9.8-8.5-.2.2 9.8 8.6z"
                                fill="#ffffff" stroke-width="none" opacity="0.28"></path>
                            <path id="SvgjsPath5920"
                                d="m122.1 103.8.2-.3-12.6-11-.2.3 12.6 11zm-3.8 4.6.2-.2-9.8-8.6-.2.3 9.8 8.5zm6.4-8.4.2-.2-9.8-8.6-.2.3 9.8 8.5zm-3.3-.5.1-.2-9.8-8.6-.1.3 9.8 8.5z"
                                fill="#ffffff" stroke-width="none" opacity="0.28"></path>
                            <path id="SvgjsPath5921"
                                d="M127.2 95.1v-.5l-6.4-6.4h-9l-6.4 6.4v3.6H94.7v-3.6l-6.4-6.4h-9l-6.4 6.4v.5H70V98h2.9v5.6l6.4 6.4h9l6.4-6.4v-3.9h10.6v3.9l6.4 6.4h9l6.4-6.4V98h2.9v-2.9h-2.8zm-33.5 8.1-5.8 5.8h-8.2l-5.8-5.8V95l5.8-5.8h8.2l5.8 5.8v3.2h-.5v1.5h.5v3.5zm32.5 0-5.8 5.8h-8.2l-5.8-5.8v-3.5h.4v-1.5h-.4V95l5.8-5.8h8.2l5.8 5.8v8.2z"
                                fill="#26120b" stroke-width="none" opacity="1"></path>
                        </g>
                    </g>
                </g>
            </g>
        </g>
        <rect id="svga-credit-rect" width="200" height="15" x="0" y="185" fill="#ecf0f1"
            opacity="0.5" style="display: none;"></rect>
        <text id="svga-credit-text" font-family="Avenir Next, Roboto, Helvetica, Arial, sans-serif"
            font-size="10px" text-anchor="start" font-weight="400" size="10px" anchor="start"
            weight="400" fill="#333333" x="33.40447998046875" y="182.60824704170227"
            style="display: none;">
            <tspan id="SvgjsTspan5447" dy="13" x="33.40447998046875">Created on AvatarMaker.com</tspan>
        </text>
    </g>
    <defs id="SvgjsDefs5394"></defs>
</svg>