<svg xmlns="http://www.w3.org/2000/svg" version="1.1" width="48px" height="48px">

    <path style="opacity:0.682" fill="#80b6dc"
        d="M 165.5,19.5 C 164.508,19.3284 163.842,19.6618 163.5,20.5C 156.149,21.7033 148.816,23.0367 141.5,24.5C 139.972,25.8021 138.972,27.4687 138.5,29.5C 138.373,27.0846 138.207,24.7513 138,22.5C 138.414,22.9574 138.914,23.2907 139.5,23.5C 148.21,20.9474 156.877,19.614 165.5,19.5 Z" />


    <path style="opacity:1" fill="#3583c4"
        d="M 163.5,20.5 C 164.345,21.6715 165.011,23.0048 165.5,24.5C 165.5,26.5 165.5,28.5 165.5,30.5C 163.661,29.4923 162.328,27.9923 161.5,26C 159.645,25.5779 157.811,25.0779 156,24.5C 151.981,25.511 148.148,26.8443 144.5,28.5C 143.284,35.5306 141.951,41.1972 140.5,45.5C 140.205,38.4122 140.538,31.4122 141.5,24.5C 148.816,23.0367 156.149,21.7033 163.5,20.5 Z" />


    <path style="opacity:0.975" fill="#c1da65"
        d="M 68.5,35.5 C 67.1667,35.5 65.8333,35.5 64.5,35.5C 64.8016,38.0593 64.4682,40.3926 63.5,42.5C 63.6323,39.4299 63.299,36.4299 62.5,33.5C 62.8333,33.5 63.1667,33.5 63.5,33.5C 95.9681,25.9396 128.635,19.273 161.5,13.5C 162.91,13.8678 163.91,14.7011 164.5,16C 132.482,22.5053 100.482,29.0053 68.5,35.5 Z" />


    <path style="opacity:0.718" fill="#edc583"
        d="M 131.5,24.5 C 131.5,25.1667 131.5,25.8333 131.5,26.5C 123.959,27.6879 116.626,29.3546 109.5,31.5C 101.262,33.1584 92.929,34.1584 84.5,34.5C 100.051,31.0706 115.718,27.7373 131.5,24.5 Z" />


    <path style="opacity:1" fill="#3b9dd7"
        d="M 166.5,47.5 C 166.666,55.84 166.5,64.1733 166,72.5C 164.476,80.2956 162.643,87.9623 160.5,95.5C 159.391,95.5569 158.391,95.8902 157.5,96.5C 162.214,84.2081 164.548,71.5415 164.5,58.5C 164.734,50.1685 163.234,42.1685 160,34.5C 155.708,30.6915 152.042,31.3581 149,36.5C 147.259,45.4679 144.592,54.1346 141,62.5C 139.391,65.4068 137.558,68.0734 135.5,70.5C 135.343,69.1266 135.51,67.7932 136,66.5C 139.088,62.5636 141.422,58.2302 143,53.5C 143.157,47.3955 144.324,41.5621 146.5,36C 148.722,29.6619 153.056,27.8286 159.5,30.5C 160.167,31.1667 160.833,31.8333 161.5,32.5C 162.576,36.6379 163.576,40.8046 164.5,45C 164.684,46.3756 165.351,47.2089 166.5,47.5 Z" />


    <path style="opacity:0.28" fill="#cde086"
        d="M 63.5,33.5 C 63.1667,33.5 62.8333,33.5 62.5,33.5C 58.4523,32.8294 55.4523,34.1627 53.5,37.5C 52.8333,37.5 52.1667,37.5 51.5,37.5C 53.9012,31.3234 57.9012,29.99 63.5,33.5 Z" />


    <path style="opacity:1" fill="#efa93d"
        d="M 129.5,34.5 C 129.784,36.4147 129.451,38.0813 128.5,39.5C 128.167,39.5 127.833,39.5 127.5,39.5C 126.89,37.5659 125.89,35.8993 124.5,34.5C 123.469,33.7515 122.302,33.0848 121,32.5C 116.492,33.36 111.992,34.36 107.5,35.5C 107.833,34.8333 108.167,34.1667 108.5,33.5C 108.833,32.8333 109.167,32.1667 109.5,31.5C 115.496,30.8663 121.496,30.6997 127.5,31C 128.305,32.1127 128.972,33.2794 129.5,34.5 Z" />


    <path style="opacity:0.892" fill="#55a3d2"
        d="M 141.5,24.5 C 140.538,31.4122 140.205,38.4122 140.5,45.5C 140.167,45.5 139.833,45.5 139.5,45.5C 139.784,43.5853 139.451,41.9187 138.5,40.5C 138.5,36.8333 138.5,33.1667 138.5,29.5C 138.972,27.4687 139.972,25.8021 141.5,24.5 Z" />


    <path style="opacity:1" fill="#cbdb44"
        d="M 62.5,33.5 C 63.299,36.4299 63.6323,39.4299 63.5,42.5C 57.2313,46.3634 53.8979,44.6967 53.5,37.5C 55.4523,34.1627 58.4523,32.8294 62.5,33.5 Z" />


    <path style="opacity:1" fill="#efa950"
        d="M 109.5,31.5 C 109.167,32.1667 108.833,32.8333 108.5,33.5C 105.331,34.0025 102.998,35.6691 101.5,38.5C 92.98,39.3934 84.6467,41.2267 76.5,44C 71.328,47.0852 66.328,50.4186 61.5,54C 59.8082,55.3073 58.4749,56.8073 57.5,58.5C 56.0527,60.4032 54.386,62.0699 52.5,63.5C 51.5,63.5 50.5,63.5 49.5,63.5C 47.2956,67.922 45.6289,72.5887 44.5,77.5C 43.8333,78.5 43.1667,79.5 42.5,80.5C 42.5,79.8333 42.5,79.1667 42.5,78.5C 45.5156,68.8059 49.3489,59.4726 54,50.5C 61.7043,50.576 66.8709,47.076 69.5,40C 74.6569,38.2784 79.6569,36.445 84.5,34.5C 92.929,34.1584 101.262,33.1584 109.5,31.5 Z" />


    <path style="opacity:1" fill="#e5ac4a"
        d="M 131.5,26.5 C 131.823,33.0221 131.49,39.3554 130.5,45.5C 130.815,41.6286 130.482,37.9619 129.5,34.5C 128.972,33.2794 128.305,32.1127 127.5,31C 121.496,30.6997 115.496,30.8663 109.5,31.5C 116.626,29.3546 123.959,27.6879 131.5,26.5 Z" />


    <path style="opacity:1" fill="#f9a52b"
        d="M 124.5,34.5 C 121.071,39.7644 116.738,44.2644 111.5,48C 94.9012,60.3087 77.9012,72.142 60.5,83.5C 57.1456,85.1132 54.1456,84.7798 51.5,82.5C 53.767,81.5769 56.1003,80.7436 58.5,80C 74.5523,67.6139 90.8857,55.6139 107.5,44C 108.494,42.6713 109.494,41.338 110.5,40C 109.968,37.9803 108.635,37.147 106.5,37.5C 106.833,36.8333 107.167,36.1667 107.5,35.5C 111.992,34.36 116.492,33.36 121,32.5C 122.302,33.0848 123.469,33.7515 124.5,34.5 Z" />


    <path style="opacity:1" fill="#49a9df"
        d="M 164.5,58.5 C 163.833,59.5 163.167,60.5 162.5,61.5C 162.656,55.1017 160.823,49.435 157,44.5C 154.121,45.3758 151.787,47.0424 150,49.5C 147.956,54.5896 145.623,59.5896 143,64.5C 139.661,66.4999 137.828,69.4999 137.5,73.5C 135.439,76.2704 132.939,78.6037 130,80.5C 127.779,85.5308 123.945,88.5308 118.5,89.5C 124.158,84.3422 129.658,79.0089 135,73.5C 135.483,72.552 135.649,71.552 135.5,70.5C 137.558,68.0734 139.391,65.4068 141,62.5C 144.592,54.1346 147.259,45.4679 149,36.5C 152.042,31.3581 155.708,30.6915 160,34.5C 163.234,42.1685 164.734,50.1685 164.5,58.5 Z" />


    <path style="opacity:1" fill="#faab2c"
        d="M 124.5,34.5 C 125.89,35.8993 126.89,37.5659 127.5,39.5C 125.817,40.8534 124.484,42.5201 123.5,44.5C 118.235,46.8008 113.235,49.6342 108.5,53C 104.494,56.3411 100.494,59.6744 96.5,63C 94.9751,64.0086 93.3084,64.5086 91.5,64.5C 91.719,65.675 91.3857,66.675 90.5,67.5C 83.5376,71.8358 77.2042,76.8358 71.5,82.5C 70.8333,82.5 70.1667,82.5 69.5,82.5C 66.6085,83.4025 63.6085,83.7359 60.5,83.5C 77.9012,72.142 94.9012,60.3087 111.5,48C 116.738,44.2644 121.071,39.7644 124.5,34.5 Z" />


    <path style="opacity:1" fill="#f9a946"
        d="M 108.5,33.5 C 108.167,34.1667 107.833,34.8333 107.5,35.5C 107.167,36.1667 106.833,36.8333 106.5,37.5C 96.4174,49.887 83.4174,57.7204 67.5,61C 62.5108,61.9744 57.5108,62.8077 52.5,63.5C 54.386,62.0699 56.0527,60.4032 57.5,58.5C 74.5397,56.6403 89.2064,49.9736 101.5,38.5C 102.998,35.6691 105.331,34.0025 108.5,33.5 Z" />


    <path style="opacity:1" fill="#f8aa4f"
        d="M 101.5,38.5 C 89.2064,49.9736 74.5397,56.6403 57.5,58.5C 58.4749,56.8073 59.8082,55.3073 61.5,54C 66.328,50.4186 71.328,47.0852 76.5,44C 84.6467,41.2267 92.98,39.3934 101.5,38.5 Z" />


    <path style="opacity:0.959" fill="#d0a960"
        d="M 131.5,24.5 C 132.821,27.5982 133.488,31.0982 133.5,35C 133.878,41.8461 132.878,48.3461 130.5,54.5C 130.5,51.5 130.5,48.5 130.5,45.5C 131.49,39.3554 131.823,33.0221 131.5,26.5C 131.5,25.8333 131.5,25.1667 131.5,24.5 Z" />


    <path style="opacity:1" fill="#fbb02c"
        d="M 123.5,44.5 C 123.017,47.658 122.017,50.658 120.5,53.5C 114.341,54.824 109.341,57.9906 105.5,63C 97.1446,66.8644 90.1446,72.3644 84.5,79.5C 83.0048,79.9887 81.6715,80.6554 80.5,81.5C 77.4824,81.7038 74.4824,82.0371 71.5,82.5C 77.2042,76.8358 83.5376,71.8358 90.5,67.5C 91.3857,66.675 91.719,65.675 91.5,64.5C 93.3084,64.5086 94.9751,64.0086 96.5,63C 100.494,59.6744 104.494,56.3411 108.5,53C 113.235,49.6342 118.235,46.8008 123.5,44.5 Z" />


    <path style="opacity:0.708" fill="#5a9dc2"
        d="M 163.5,20.5 C 163.842,19.6618 164.508,19.3284 165.5,19.5C 169.446,30.6217 171.113,42.1217 170.5,54C 171.128,66.7296 169.128,78.8963 164.5,90.5C 164.709,84.3264 165.876,78.3264 168,72.5C 170.429,56.1501 169.596,40.1501 165.5,24.5C 165.011,23.0048 164.345,21.6715 163.5,20.5 Z" />


    <path style="opacity:0.694" fill="#c3da70"
        d="M 68.5,35.5 C 67.7375,36.2679 66.7375,36.7679 65.5,37C 66.3366,38.0113 66.67,39.1779 66.5,40.5C 65.596,41.209 65.2627,42.209 65.5,43.5C 64.8333,43.5 64.5,43.8333 64.5,44.5C 63.8333,44.5 63.5,44.8333 63.5,45.5C 62.8333,45.5 62.5,45.8333 62.5,46.5C 59.2516,46.2382 56.2516,46.2382 53.5,46.5C 52.6618,46.8417 52.3284,47.5084 52.5,48.5C 51.6618,48.8417 51.3284,49.5084 51.5,50.5C 49.8958,51.287 49.2291,52.6203 49.5,54.5C 44.9548,61.9431 41.4548,69.9431 39,78.5C 35.0519,92.0788 32.2185,105.745 30.5,119.5C 31.0356,116.302 30.369,113.635 28.5,111.5C 31.7121,87.6968 39.2121,65.3635 51,44.5C 51.4966,42.1902 51.6633,39.8568 51.5,37.5C 52.1667,37.5 52.8333,37.5 53.5,37.5C 53.8979,44.6967 57.2313,46.3634 63.5,42.5C 64.4682,40.3926 64.8016,38.0593 64.5,35.5C 65.8333,35.5 67.1667,35.5 68.5,35.5 Z" />


    <path style="opacity:1" fill="#f89e2b"
        d="M 106.5,37.5 C 108.635,37.147 109.968,37.9803 110.5,40C 109.494,41.338 108.494,42.6713 107.5,44C 90.8857,55.6139 74.5523,67.6139 58.5,80C 56.1003,80.7436 53.767,81.5769 51.5,82.5C 49.8828,81.962 48.2161,81.6287 46.5,81.5C 47.1315,74.9385 49.1315,68.9385 52.5,63.5C 57.5108,62.8077 62.5108,61.9744 67.5,61C 83.4174,57.7204 96.4174,49.887 106.5,37.5 Z" />


    <path style="opacity:1" fill="#fcb72d"
        d="M 120.5,53.5 C 119.619,56.929 117.952,59.929 115.5,62.5C 108.595,66.4463 102.262,71.113 96.5,76.5C 92.8878,77.6084 89.3878,78.9417 86,80.5C 85.6174,79.944 85.1174,79.6107 84.5,79.5C 90.1446,72.3644 97.1446,66.8644 105.5,63C 109.341,57.9906 114.341,54.824 120.5,53.5 Z" />


    <path style="opacity:0.957" fill="#ecc381"
        d="M 84.5,34.5 C 79.6569,36.445 74.6569,38.2784 69.5,40C 66.8709,47.076 61.7043,50.576 54,50.5C 49.3489,59.4726 45.5156,68.8059 42.5,78.5C 41.5,80.5 40.5,82.5 39.5,84.5C 42.2347,74.2958 45.5681,64.2958 49.5,54.5C 50.6737,53.4863 51.3404,52.153 51.5,50.5C 52.3382,50.1583 52.6716,49.4916 52.5,48.5C 53.3382,48.1583 53.6716,47.4916 53.5,46.5C 56.6038,47.7752 59.6038,47.7752 62.5,46.5C 63.1667,46.5 63.5,46.1667 63.5,45.5C 64.1667,45.5 64.5,45.1667 64.5,44.5C 65.1667,44.5 65.5,44.1667 65.5,43.5C 66.404,42.791 66.7373,41.791 66.5,40.5C 67.1859,39.1516 68.1859,37.985 69.5,37C 74.4313,35.6829 79.4313,34.8496 84.5,34.5 Z" />


    <path style="opacity:1" fill="#f7bb36"
        d="M 127.5,39.5 C 127.833,39.5 128.167,39.5 128.5,39.5C 126.848,58.9813 117.181,72.8147 99.5,81C 92.4686,83.7579 85.1353,85.5912 77.5,86.5C 78.7515,84.9991 79.7515,83.3325 80.5,81.5C 81.6715,80.6554 83.0048,79.9887 84.5,79.5C 85.1174,79.6107 85.6174,79.944 86,80.5C 89.3878,78.9417 92.8878,77.6084 96.5,76.5C 102.262,71.113 108.595,66.4463 115.5,62.5C 117.952,59.929 119.619,56.929 120.5,53.5C 122.017,50.658 123.017,47.658 123.5,44.5C 124.484,42.5201 125.817,40.8534 127.5,39.5 Z" />


    <path style="opacity:1" fill="#55c4f0"
        d="M 158.5,71.5 C 158.5,72.1667 158.5,72.8333 158.5,73.5C 157.833,74.1667 157.167,74.8333 156.5,75.5C 152.937,75.6252 150.437,77.2919 149,80.5C 148.667,80.1667 148.333,79.8333 148,79.5C 129.517,93.9095 111.017,107.576 92.5,120.5C 91.147,121.685 89.9803,123.019 89,124.5C 88.6667,124.167 88.3333,123.833 88,123.5C 86.7775,125.696 84.9442,127.196 82.5,128C 82.7284,128.399 83.0618,128.565 83.5,128.5C 79.1051,130.435 74.4385,131.769 69.5,132.5C 69.0618,132.565 68.7284,132.399 68.5,132C 80.1144,124.053 91.4477,115.719 102.5,107C 119.461,98.6851 134.461,87.6851 147.5,74C 150.418,72.2912 153.252,70.4579 156,68.5C 156.852,69.5707 157.685,70.5707 158.5,71.5 Z" />


    <path style="opacity:1" fill="#4eb5e6"
        d="M 162.5,61.5 C 162.405,63.7857 161.738,65.7857 160.5,67.5C 159.624,64.7041 158.457,62.0375 157,59.5C 150.34,63.4929 145.007,68.8262 141,75.5C 133.341,84.501 124.508,92.001 114.5,98C 104.818,102.52 95.4849,106.854 86.5,111C 75.9065,118.978 65.2398,126.978 54.5,135C 55.0944,135.464 55.7611,135.631 56.5,135.5C 51.7831,137.238 46.7831,137.904 41.5,137.5C 41.9157,133.161 43.249,129.161 45.5,125.5C 51.4055,120.913 57.4055,116.413 63.5,112C 75.3961,108.025 87.3961,104.359 99.5,101C 101.97,99.9786 104.304,98.8119 106.5,97.5C 110.844,95.3295 114.844,92.6628 118.5,89.5C 123.945,88.5308 127.779,85.5308 130,80.5C 132.939,78.6037 135.439,76.2704 137.5,73.5C 137.828,69.4999 139.661,66.4999 143,64.5C 145.623,59.5896 147.956,54.5896 150,49.5C 151.787,47.0424 154.121,45.3758 157,44.5C 160.823,49.435 162.656,55.1017 162.5,61.5 Z" />


    <path style="opacity:1" fill="#ebb743"
        d="M 129.5,34.5 C 130.482,37.9619 130.815,41.6286 130.5,45.5C 130.5,48.5 130.5,51.5 130.5,54.5C 127.265,59.9222 123.765,65.2555 120,70.5C 114.378,76.384 107.878,80.884 100.5,84C 97.2321,85.1503 93.8988,85.9836 90.5,86.5C 85.6451,87.0471 80.9784,87.0471 76.5,86.5C 76.8333,86.5 77.1667,86.5 77.5,86.5C 85.1353,85.5912 92.4686,83.7579 99.5,81C 117.181,72.8147 126.848,58.9813 128.5,39.5C 129.451,38.0813 129.784,36.4147 129.5,34.5 Z" />


    <path style="opacity:1" fill="#1e88c4"
        d="M 165.5,24.5 C 169.596,40.1501 170.429,56.1501 168,72.5C 165.876,78.3264 164.709,84.3264 164.5,90.5C 163.515,92.5061 162.182,94.1727 160.5,95.5C 162.643,87.9623 164.476,80.2956 166,72.5C 166.5,64.1733 166.666,55.84 166.5,47.5C 166.365,41.819 166.032,36.1523 165.5,30.5C 165.5,28.5 165.5,26.5 165.5,24.5 Z" />


    <path style="opacity:0.914" fill="#cda85c"
        d="M 130.5,54.5 C 126.997,67.3283 119.33,76.8283 107.5,83C 92.5505,89.6237 76.8839,93.1237 60.5,93.5C 53.1667,92.8333 45.8333,92.1667 38.5,91.5C 49.0135,91.8276 59.3468,91.4942 69.5,90.5C 76.9948,90.7554 83.9948,89.4221 90.5,86.5C 93.8988,85.9836 97.2321,85.1503 100.5,84C 107.878,80.884 114.378,76.384 120,70.5C 123.765,65.2555 127.265,59.9222 130.5,54.5 Z" />


    <path style="opacity:1" fill="#58caf4"
        d="M 156.5,75.5 C 154.597,80.3072 151.93,84.6405 148.5,88.5C 133.649,104.007 116.315,116.007 96.5,124.5C 92.8733,125.321 89.54,126.654 86.5,128.5C 85.5,128.5 84.5,128.5 83.5,128.5C 83.0618,128.565 82.7284,128.399 82.5,128C 84.9442,127.196 86.7775,125.696 88,123.5C 88.3333,123.833 88.6667,124.167 89,124.5C 89.9803,123.019 91.147,121.685 92.5,120.5C 111.017,107.576 129.517,93.9095 148,79.5C 148.333,79.8333 148.667,80.1667 149,80.5C 150.437,77.2919 152.937,75.6252 156.5,75.5 Z" />


    <path style="opacity:1" fill="#f3b239"
        d="M 80.5,81.5 C 79.7515,83.3325 78.7515,84.9991 77.5,86.5C 77.1667,86.5 76.8333,86.5 76.5,86.5C 71.2547,87.5278 65.9214,88.1945 60.5,88.5C 63.7472,86.7212 66.7472,84.7212 69.5,82.5C 70.1667,82.5 70.8333,82.5 71.5,82.5C 74.4824,82.0371 77.4824,81.7038 80.5,81.5 Z" />


    <path style="opacity:1" fill="#f1a938"
        d="M 52.5,63.5 C 49.1315,68.9385 47.1315,74.9385 46.5,81.5C 48.2161,81.6287 49.8828,81.962 51.5,82.5C 54.1456,84.7798 57.1456,85.1132 60.5,83.5C 63.6085,83.7359 66.6085,83.4025 69.5,82.5C 66.7472,84.7212 63.7472,86.7212 60.5,88.5C 54.6924,90.4654 49.5257,89.4654 45,85.5C 44.5026,82.854 44.3359,80.1873 44.5,77.5C 45.6289,72.5887 47.2956,67.922 49.5,63.5C 50.5,63.5 51.5,63.5 52.5,63.5 Z" />


    <path style="opacity:1" fill="#e9ad42"
        d="M 44.5,77.5 C 44.3359,80.1873 44.5026,82.854 45,85.5C 49.5257,89.4654 54.6924,90.4654 60.5,88.5C 65.9214,88.1945 71.2547,87.5278 76.5,86.5C 80.9784,87.0471 85.6451,87.0471 90.5,86.5C 83.9948,89.4221 76.9948,90.7554 69.5,90.5C 59.4944,90.6665 49.4944,90.4998 39.5,90C 40.8852,86.9608 41.8852,83.7941 42.5,80.5C 43.1667,79.5 43.8333,78.5 44.5,77.5 Z" />


    <path style="opacity:1" fill="#dca84d"
        d="M 42.5,78.5 C 42.5,79.1667 42.5,79.8333 42.5,80.5C 41.8852,83.7941 40.8852,86.9608 39.5,90C 49.4944,90.4998 59.4944,90.6665 69.5,90.5C 59.3468,91.4942 49.0135,91.8276 38.5,91.5C 38.9926,89.1944 39.3259,86.861 39.5,84.5C 40.5,82.5 41.5,80.5 42.5,78.5 Z" />


    <path style="opacity:1" fill="#3f95d1"
        d="M 165.5,30.5 C 166.032,36.1523 166.365,41.819 166.5,47.5C 165.351,47.2089 164.684,46.3756 164.5,45C 163.576,40.8046 162.576,36.6379 161.5,32.5C 160.833,31.8333 160.167,31.1667 159.5,30.5C 153.056,27.8286 148.722,29.6619 146.5,36C 144.324,41.5621 143.157,47.3955 143,53.5C 141.422,58.2302 139.088,62.5636 136,66.5C 135.51,67.7932 135.343,69.1266 135.5,70.5C 135.649,71.552 135.483,72.552 135,73.5C 129.658,79.0089 124.158,84.3422 118.5,89.5C 110.735,93.1464 102.735,96.313 94.5,99C 78.256,102.747 61.9227,105.747 45.5,108C 43.2625,110.03 41.7625,112.53 41,115.5C 39.1819,123.075 38.0152,130.741 37.5,138.5C 36.8333,138.5 36.5,138.833 36.5,139.5C 36.1667,139.5 35.8333,139.5 35.5,139.5C 35.7154,129.009 37.0487,118.676 39.5,108.5C 40.8333,107.833 41.8333,106.833 42.5,105.5C 53.3845,103.264 64.3845,101.764 75.5,101C 84.7622,99.418 93.7622,97.0846 102.5,94C 101.906,93.5357 101.239,93.369 100.5,93.5C 123.706,85.9462 136.706,69.9462 139.5,45.5C 139.833,45.5 140.167,45.5 140.5,45.5C 141.951,41.1972 143.284,35.5306 144.5,28.5C 148.148,26.8443 151.981,25.511 156,24.5C 157.811,25.0779 159.645,25.5779 161.5,26C 162.328,27.9923 163.661,29.4923 165.5,30.5 Z" />


    <path style="opacity:0.294" fill="#d3b070"
        d="M 39.5,84.5 C 39.3259,86.861 38.9926,89.1944 38.5,91.5C 45.8333,92.1667 53.1667,92.8333 60.5,93.5C 52.4723,93.831 44.4723,93.4977 36.5,92.5C 37.2092,89.6156 38.2092,86.949 39.5,84.5 Z" />


    <path style="opacity:0.839" fill="#82b9dd"
        d="M 138.5,40.5 C 139.451,41.9187 139.784,43.5853 139.5,45.5C 136.706,69.9462 123.706,85.9462 100.5,93.5C 89.3403,96.1852 78.007,97.8519 66.5,98.5C 62.9581,98.8128 59.6248,98.4794 56.5,97.5C 74.0084,97.5945 91.0084,94.7612 107.5,89C 127.283,79.0188 137.616,62.8522 138.5,40.5 Z" />


    <path style="opacity:1" fill="#52bdec"
        d="M 160.5,67.5 C 160.34,69.153 159.674,70.4863 158.5,71.5C 157.685,70.5707 156.852,69.5707 156,68.5C 153.252,70.4579 150.418,72.2912 147.5,74C 134.461,87.6851 119.461,98.6851 102.5,107C 91.4477,115.719 80.1144,124.053 68.5,132C 68.7284,132.399 69.0618,132.565 69.5,132.5C 69.5,132.833 69.5,133.167 69.5,133.5C 65.186,134.275 60.8526,134.941 56.5,135.5C 55.7611,135.631 55.0944,135.464 54.5,135C 65.2398,126.978 75.9065,118.978 86.5,111C 95.4849,106.854 104.818,102.52 114.5,98C 124.508,92.001 133.341,84.501 141,75.5C 145.007,68.8262 150.34,63.4929 157,59.5C 158.457,62.0375 159.624,64.7041 160.5,67.5 Z" />


    <path style="opacity:1" fill="#71b0d9"
        d="M 56.5,97.5 C 59.6248,98.4794 62.9581,98.8128 66.5,98.5C 56.6806,99.494 46.6806,99.8274 36.5,99.5C 34.1376,111.714 33.1376,124.048 33.5,136.5C 32.8333,139.167 32.1667,141.833 31.5,144.5C 31.2203,128.687 32.5536,113.02 35.5,97.5C 42.5,97.5 49.5,97.5 56.5,97.5 Z" />


    <path style="opacity:1" fill="#46a3db"
        d="M 118.5,89.5 C 114.844,92.6628 110.844,95.3295 106.5,97.5C 87.1853,103.2 68.1853,108.2 49.5,112.5C 48.4495,113.885 47.1161,114.885 45.5,115.5C 42.7429,122.946 40.7429,130.612 39.5,138.5C 38.8333,138.5 38.1667,138.5 37.5,138.5C 38.0152,130.741 39.1819,123.075 41,115.5C 41.7625,112.53 43.2625,110.03 45.5,108C 61.9227,105.747 78.256,102.747 94.5,99C 102.735,96.313 110.735,93.1464 118.5,89.5 Z" />


    <path style="opacity:0.914" fill="#5d9ec3"
        d="M 164.5,90.5 C 162.899,97.0295 160.233,103.03 156.5,108.5C 157.042,103.877 158.376,99.5433 160.5,95.5C 162.182,94.1727 163.515,92.5061 164.5,90.5 Z" />


    <path style="opacity:1" fill="#29a9e1"
        d="M 164.5,58.5 C 164.548,71.5415 162.214,84.2081 157.5,96.5C 155.981,100.701 153.981,104.701 151.5,108.5C 149.045,111.077 146.378,113.411 143.5,115.5C 148.244,107.013 152.744,98.346 157,89.5C 158.506,84.1188 159.006,78.7855 158.5,73.5C 158.5,72.8333 158.5,72.1667 158.5,71.5C 159.674,70.4863 160.34,69.153 160.5,67.5C 161.738,65.7857 162.405,63.7857 162.5,61.5C 163.167,60.5 163.833,59.5 164.5,58.5 Z" />


    <path style="opacity:1" fill="#4cabe0"
        d="M 106.5,97.5 C 104.304,98.8119 101.97,99.9786 99.5,101C 87.3961,104.359 75.3961,108.025 63.5,112C 57.4055,116.413 51.4055,120.913 45.5,125.5C 43.249,129.161 41.9157,133.161 41.5,137.5C 41.5,137.833 41.5,138.167 41.5,138.5C 40.8333,138.5 40.1667,138.5 39.5,138.5C 40.7429,130.612 42.7429,122.946 45.5,115.5C 47.1161,114.885 48.4495,113.885 49.5,112.5C 68.1853,108.2 87.1853,103.2 106.5,97.5 Z" />


    <path style="opacity:1" fill="#30c4f3"
        d="M 148.5,88.5 C 149.398,89.1577 150.398,89.8243 151.5,90.5C 138.158,125.417 113.325,144.751 77,148.5C 74.8333,148.167 72.6667,147.833 70.5,147.5C 80.2828,139.768 90.2828,132.268 100.5,125C 99.2068,124.51 97.8734,124.343 96.5,124.5C 116.315,116.007 133.649,104.007 148.5,88.5 Z" />


    <path style="opacity:1" fill="#3787c7"
        d="M 100.5,93.5 C 101.239,93.369 101.906,93.5357 102.5,94C 93.7622,97.0846 84.7622,99.418 75.5,101C 64.3845,101.764 53.3845,103.264 42.5,105.5C 41.8333,106.833 40.8333,107.833 39.5,108.5C 37.0487,118.676 35.7154,129.009 35.5,139.5C 34.3368,145.019 35.6701,149.853 39.5,154C 39.2716,154.399 38.9382,154.565 38.5,154.5C 37.0695,154.579 35.7362,154.246 34.5,153.5C 33.5046,147.872 33.1712,142.206 33.5,136.5C 33.1376,124.048 34.1376,111.714 36.5,99.5C 46.6806,99.8274 56.6806,99.494 66.5,98.5C 78.007,97.8519 89.3403,96.1852 100.5,93.5 Z" />


    <path style="opacity:0.89" fill="#c3da63"
        d="M 28.5,111.5 C 30.369,113.635 31.0356,116.302 30.5,119.5C 30.5,123.5 30.5,127.5 30.5,131.5C 29.8333,131.5 29.1667,131.5 28.5,131.5C 28.5,124.833 28.5,118.167 28.5,111.5 Z" />


    <path style="opacity:1" fill="#2fbeef"
        d="M 158.5,73.5 C 159.006,78.7855 158.506,84.1188 157,89.5C 152.744,98.346 148.244,107.013 143.5,115.5C 142.167,116.5 140.833,117.5 139.5,118.5C 133.036,125.122 126.036,131.289 118.5,137C 103.015,146.909 86.1817,151.743 68,151.5C 65.4572,150.793 63.2905,149.46 61.5,147.5C 68.3096,142.525 74.9762,137.358 81.5,132C 83.5,131 85.5,130 87.5,129C 87.2716,128.601 86.9382,128.435 86.5,128.5C 89.54,126.654 92.8733,125.321 96.5,124.5C 97.8734,124.343 99.2068,124.51 100.5,125C 90.2828,132.268 80.2828,139.768 70.5,147.5C 72.6667,147.833 74.8333,148.167 77,148.5C 113.325,144.751 138.158,125.417 151.5,90.5C 150.398,89.8243 149.398,89.1577 148.5,88.5C 151.93,84.6405 154.597,80.3072 156.5,75.5C 157.167,74.8333 157.833,74.1667 158.5,73.5 Z" />


    <path style="opacity:1" fill="#2fb8eb"
        d="M 139.5,118.5 C 136.225,123.113 132.558,127.446 128.5,131.5C 123.57,135.115 118.903,138.949 114.5,143C 105.965,146.067 97.2986,148.734 88.5,151C 77.5667,153.466 66.9001,152.966 56.5,149.5C 54.1422,148.001 53.9756,146.334 56,144.5C 60.5612,140.134 65.7279,136.634 71.5,134C 70.9056,133.536 70.2389,133.369 69.5,133.5C 69.5,133.167 69.5,132.833 69.5,132.5C 74.4385,131.769 79.1051,130.435 83.5,128.5C 84.5,128.5 85.5,128.5 86.5,128.5C 86.9382,128.435 87.2716,128.601 87.5,129C 85.5,130 83.5,131 81.5,132C 74.9762,137.358 68.3096,142.525 61.5,147.5C 63.2905,149.46 65.4572,150.793 68,151.5C 86.1817,151.743 103.015,146.909 118.5,137C 126.036,131.289 133.036,125.122 139.5,118.5 Z" />


    <path style="opacity:0.609" fill="#c9de70"
        d="M 28.5,131.5 C 29.1667,131.5 29.8333,131.5 30.5,131.5C 29.69,138.856 29.3566,146.19 29.5,153.5C 28.5027,146.197 28.1694,138.863 28.5,131.5 Z" />


    <path style="opacity:1" fill="#2caee4"
        d="M 143.5,115.5 C 143.617,117.484 142.95,119.15 141.5,120.5C 135.318,126.514 129.318,132.681 123.5,139C 119.833,141.333 116.167,143.667 112.5,146C 106.363,147.601 100.363,149.601 94.5,152C 85.1619,153.09 75.8286,154.257 66.5,155.5C 57.8246,155.046 49.9913,152.38 43,147.5C 42.8195,144.305 42.3195,141.305 41.5,138.5C 41.5,138.167 41.5,137.833 41.5,137.5C 46.7831,137.904 51.7831,137.238 56.5,135.5C 60.8526,134.941 65.186,134.275 69.5,133.5C 70.2389,133.369 70.9056,133.536 71.5,134C 65.7279,136.634 60.5612,140.134 56,144.5C 53.9756,146.334 54.1422,148.001 56.5,149.5C 66.9001,152.966 77.5667,153.466 88.5,151C 97.2986,148.734 105.965,146.067 114.5,143C 118.903,138.949 123.57,135.115 128.5,131.5C 132.558,127.446 136.225,123.113 139.5,118.5C 140.833,117.5 142.167,116.5 143.5,115.5 Z" />


    <path style="opacity:1" fill="#2b9fd9"
        d="M 151.5,108.5 C 144.275,123.236 133.608,135.069 119.5,144C 97.6802,156.764 74.3468,160.764 49.5,156C 45.9463,154.702 42.4463,153.202 39,151.5C 36.8682,147.792 36.0349,143.792 36.5,139.5C 36.5,138.833 36.8333,138.5 37.5,138.5C 38.1667,138.5 38.8333,138.5 39.5,138.5C 40.1667,138.5 40.8333,138.5 41.5,138.5C 42.3195,141.305 42.8195,144.305 43,147.5C 49.9913,152.38 57.8246,155.046 66.5,155.5C 75.8286,154.257 85.1619,153.09 94.5,152C 100.363,149.601 106.363,147.601 112.5,146C 116.167,143.667 119.833,141.333 123.5,139C 129.318,132.681 135.318,126.514 141.5,120.5C 142.95,119.15 143.617,117.484 143.5,115.5C 146.378,113.411 149.045,111.077 151.5,108.5 Z" />


    <path style="opacity:0.761" fill="#529ac0"
        d="M 154.5,111.5 C 135.476,143.942 106.976,160.609 69,161.5C 56.2743,162.018 44.1077,159.685 32.5,154.5C 31.513,151.232 31.1796,147.898 31.5,144.5C 32.1667,141.833 32.8333,139.167 33.5,136.5C 33.1712,142.206 33.5046,147.872 34.5,153.5C 35.7362,154.246 37.0695,154.579 38.5,154.5C 72.5141,165.184 103.514,159.351 131.5,137C 139.786,128.826 147.452,120.326 154.5,111.5 Z" />


    <path style="opacity:1" fill="#258ac6"
        d="M 160.5,95.5 C 158.376,99.5433 157.042,103.877 156.5,108.5C 156.573,110.027 155.906,111.027 154.5,111.5C 147.452,120.326 139.786,128.826 131.5,137C 103.514,159.351 72.5141,165.184 38.5,154.5C 38.9382,154.565 39.2716,154.399 39.5,154C 35.6701,149.853 34.3368,145.019 35.5,139.5C 35.8333,139.5 36.1667,139.5 36.5,139.5C 36.0349,143.792 36.8682,147.792 39,151.5C 42.4463,153.202 45.9463,154.702 49.5,156C 74.3468,160.764 97.6802,156.764 119.5,144C 133.608,135.069 144.275,123.236 151.5,108.5C 153.981,104.701 155.981,100.701 157.5,96.5C 158.391,95.8902 159.391,95.5569 160.5,95.5 Z" />

</svg>